<svg xmlns="http://www.w3.org/2000/svg" viewBox="0 0 264.87 30.72"><defs><style>.cls-1{fill:#fff;}</style></defs><g id="Layer_2" data-name="Layer 2"><g id="Layer_1-2" data-name="Layer 1"><path class="cls-1" d="M109.73.31h7.4a5.71,5.71,0,0,1,4.17,1.42,3.61,3.61,0,0,1,1.09,2.7v.05a3.71,3.71,0,0,1-2.09,3.44c1.84.7,3,1.78,3,3.91v.05c0,2.9-2.37,4.37-6,4.37h-7.59Zm6.65,6.45c1.55,0,2.53-.5,2.53-1.68V5c0-1.05-.82-1.64-2.3-1.64h-3.46V6.76Zm.94,6.42c1.55,0,2.48-.55,2.48-1.73v0c0-1.07-.8-1.73-2.6-1.73h-4v3.51Z"/><path class="cls-1" d="M128.45.31h7.28a6.35,6.35,0,0,1,4.65,1.62,5,5,0,0,1,1.36,3.64v0a4.94,4.94,0,0,1-3.41,4.94l3.89,5.69h-4.1l-3.41-5.1H132v5.1h-3.5Zm7.06,7.74c1.7,0,2.68-.91,2.68-2.25v0c0-1.51-1.05-2.28-2.76-2.28H132V8.05Z"/><path class="cls-1" d="M146.48,8.33V8.28a8.47,8.47,0,0,1,16.94,0v0a8.47,8.47,0,0,1-16.94.05m13.28,0V8.28a4.86,4.86,0,0,0-4.83-5,4.77,4.77,0,0,0-4.78,5v0a4.85,4.85,0,0,0,4.82,5,4.77,4.77,0,0,0,4.79-5"/><path class="cls-1" d="M173.25.2h3.24l6.83,16.05h-3.67l-1.46-3.58h-6.74L170,16.25h-3.58Zm3.69,9.39-2.11-5.17-2.12,5.17Z"/><path class="cls-1" d="M188.05.31h6.22c5,0,8.47,3.44,8.47,7.93v0c0,4.49-3.46,8-8.47,8h-6.22Zm6.22,12.78a4.54,4.54,0,0,0,4.8-4.76V8.28a4.57,4.57,0,0,0-4.8-4.8h-2.71v9.61Z"/><polygon class="cls-1" points="205.99 0.31 209.75 0.31 213.05 11.11 216.63 0.27 219.63 0.27 223.21 11.11 226.51 0.31 230.17 0.31 224.73 16.36 221.68 16.36 218.08 5.94 214.48 16.36 211.43 16.36 205.99 0.31"/><path class="cls-1" d="M238.46.2h3.23l6.83,16.05h-3.67l-1.46-3.58h-6.72l-1.46,3.58h-3.57Zm3.69,9.39L240,4.41l-2.11,5.17Z"/><polygon class="cls-1" points="255.24 9.97 249.11 0.31 253.21 0.31 257.01 6.71 260.88 0.31 264.87 0.31 258.74 9.9 258.74 16.25 255.24 16.25 255.24 9.97"/><rect class="cls-1" y="0.38" width="5.29" height="29.99"/><path class="cls-1" d="M39,30.37H32.34l-11.9-13v13H15.19V.38H25.68A11.23,11.23,0,0,1,33.36,3a8.06,8.06,0,0,1,3,6.4,7.51,7.51,0,0,1-2.56,5.75,10.17,10.17,0,0,1-6.4,2.69ZM20.44,3.07V15.7h3.84c3.75,0,6.65-2.22,6.65-6.31S28,3.07,24.28,3.07Z"/><rect class="cls-1" x="44.63" y="0.38" width="5.29" height="29.99"/><path class="cls-1" d="M76.33,28.11a12.07,12.07,0,0,1-7.9,2.61,11.83,11.83,0,0,1-7.5-2.39,9.33,9.33,0,0,1-3.54-5.89l3.83-1a6.89,6.89,0,0,0,2.35,4.65,7.33,7.33,0,0,0,5,2c3.76,0,6.49-2.35,6.49-5.59,0-2.9-2-4.22-7.26-5.42-6.44-1.49-9.21-4.14-9.21-8.44a7.54,7.54,0,0,1,3-6.11A11.06,11.06,0,0,1,68.9,0a11,11,0,0,1,6.87,2.13,8.77,8.77,0,0,1,3.42,5l-3.85.89A6.19,6.19,0,0,0,73,4.35a6.7,6.7,0,0,0-4.23-1.62c-3.24,0-5.67,2-5.67,4.78a3.09,3.09,0,0,0,1.45,2.73,18,18,0,0,0,5.25,1.88c7.12,1.66,9.76,4.35,9.76,9.42a8.13,8.13,0,0,1-3.19,6.57"/><rect class="cls-1" x="94.23" y="0.31" width="1.39" height="30.1"/><path class="cls-1" d="M109.68,27.19a3.38,3.38,0,0,1,.81-2.32,2.79,2.79,0,0,1,2.2-.91,2.75,2.75,0,0,1,1.73.57,2.21,2.21,0,0,1,.85,1.59H114a1.28,1.28,0,0,0-.46-.77,1.31,1.31,0,0,0-.83-.26,1.44,1.44,0,0,0-1,.31,1.66,1.66,0,0,0-.55.76,3.32,3.32,0,0,0-.16,1,2.53,2.53,0,0,0,.41,1.45,1.44,1.44,0,0,0,1.26.6,1.3,1.3,0,0,0,1.45-1.32h-1.35v-1h2.57v3.31h-.86l-.13-.69a2,2,0,0,1-1.68.84,2.79,2.79,0,0,1-2.2-.91,3.29,3.29,0,0,1-.81-2.27"/><path class="cls-1" d="M125.08,24.1v3.81a2.36,2.36,0,0,1-.69,1.84,2.76,2.76,0,0,1-1.93.62,2.81,2.81,0,0,1-1.93-.61,2.39,2.39,0,0,1-.68-1.85V24.1h1.35v3.81a1.66,1.66,0,0,0,.26,1,1.18,1.18,0,0,0,1,.36,1.29,1.29,0,0,0,1-.32,1.47,1.47,0,0,0,.28-1V24.1Z"/><path class="cls-1" d="M129.66,30.22V24.1H133a1.75,1.75,0,0,1,1.3.49,1.62,1.62,0,0,1,.5,1.2,1.49,1.49,0,0,1-1,1.53v0c.53.15.83.63.89,1.43,0,0,0,.12,0,.33s0,.35,0,.44a2,2,0,0,0,.06.35,1,1,0,0,0,.15.33h-1.35a1.45,1.45,0,0,1-.1-.41,4.54,4.54,0,0,1-.06-.57c0-.22,0-.38-.05-.48a1.24,1.24,0,0,0-.3-.72,1,1,0,0,0-.72-.21H131v2.39ZM131,25.15v1.72h1.47q.93,0,.93-.87c0-.57-.31-.85-.93-.85Z"/><path class="cls-1" d="M144.48,24.1v3.81a2.39,2.39,0,0,1-.68,1.84,3.35,3.35,0,0,1-3.87,0,2.38,2.38,0,0,1-.67-1.85V24.1h1.34v3.81a1.59,1.59,0,0,0,.27,1,1.14,1.14,0,0,0,1,.36,1.29,1.29,0,0,0,1-.32,1.47,1.47,0,0,0,.28-1V24.1Z"/><path class="cls-1" d="M148.8,27.19a3.34,3.34,0,0,1,.82-2.32,3,3,0,0,1,3.93-.34,2.24,2.24,0,0,1,.84,1.59h-1.28a1.26,1.26,0,0,0-1.3-1,1.48,1.48,0,0,0-1,.31,1.57,1.57,0,0,0-.54.76,3.05,3.05,0,0,0-.16,1,2.45,2.45,0,0,0,.41,1.45,1.41,1.41,0,0,0,1.25.6,1.3,1.3,0,0,0,1.46-1.32h-1.36v-1h2.58v3.31h-.86l-.14-.69a2,2,0,0,1-1.68.84,2.77,2.77,0,0,1-2.19-.91,3.25,3.25,0,0,1-.82-2.27"/><path class="cls-1" d="M159,30.22V24.1h3.31a1.76,1.76,0,0,1,1.3.49,1.65,1.65,0,0,1,.49,1.2,1.49,1.49,0,0,1-1,1.53v0c.54.15.83.63.89,1.43,0,0,0,.12,0,.33s0,.35,0,.44a2.14,2.14,0,0,0,.07.35.84.84,0,0,0,.14.33h-1.35a1.89,1.89,0,0,1-.1-.41q0-.25-.06-.57c0-.22,0-.38-.05-.48a1.24,1.24,0,0,0-.3-.72,1,1,0,0,0-.72-.21h-1.35v2.39Zm1.35-5.07v1.72h1.48c.61,0,.92-.29.92-.87s-.31-.85-.92-.85Z"/><path class="cls-1" d="M168,30.22l2.33-6.12h1.38L174,30.22h-1.4l-.46-1.36h-2.29l-.48,1.36Zm2.2-2.36h1.58L171,25.61h0Z"/><polygon class="cls-1" points="177.93 30.22 177.93 24.1 179.82 24.1 181.26 28.31 181.27 28.31 182.63 24.1 184.52 24.1 184.52 30.22 183.26 30.22 183.26 25.88 183.25 25.88 181.74 30.22 180.71 30.22 179.21 25.93 179.19 25.93 179.19 30.22 177.93 30.22"/></g></g></svg>